# xmcd CD database file
#
# Track frame offsets:
#	187
#	31595
#	53900
#	77475
#	105402
#	139865
#	155547
#
# Disc length: 2535 seconds
#
# Revision: 0
# Processed by: cddbd v1.5.2PL0 Copyright (c) Steve Scherf et al.
# Submitted via: CDex 1.77
#
DISCID=4909e507
DTITLE=Masaru Imada and George Mraz - Alone Together
DYEAR=1977
DGENRE=Jazz
TTITLE0=Alone Together
TTITLE1=Poppy
TTITLE2=Stella by Starlight
TTITLE3=Blue Road
TTITLE4=Blue Rain (take two)
TTITLE5=Remember of Love
TTITLE6=Blue Rain (take one)
EXTD=YEAR: 1977
EXTT0=
EXTT1=
EXTT2=
EXTT3=
EXTT4=
EXTT5=
EXTT6=
PLAYORDER=
